<svg xmlns="http://www.w3.org/2000/svg" width="24.134" height="21.835" viewBox="0 0 24.134 21.835">
  <defs>
    <style>
      .cls-1 {
        fill: none;
      }

      .cls-2, .cls-3 {
        stroke: none;
      }

      .cls-3 {
        fill: #fff;
      }
    </style>
  </defs>
  <g id="패스_153" data-name="패스 153" class="cls-1">
    <path class="cls-2" d="M12.067,21.835C5.579,17.475,2.176,13.509.78,10.19c-3.739-8.9,6.94-13.15,11.287-7.9,4.347-5.251,15.025-1,11.287,7.9C21.958,13.509,18.555,17.475,12.067,21.835Z"/>
    <path class="cls-3" d="M 12.06685066223145 19.4077320098877 C 18.18886566162109 15.09225940704346 20.58417129516602 11.6164026260376 21.50971984863281 9.41486930847168 C 22.36967086791992 7.368669509887695 22.33929061889648 5.557299613952637 21.42185974121094 4.176579475402832 C 20.54330062866211 2.85435938835144 18.85143089294434 1.999999523162842 17.11160087585449 1.999999523162842 C 16.28713989257812 1.999999523162842 14.73559093475342 2.203489542007446 13.60754108428955 3.566329479217529 L 12.06685066223145 5.427709579467773 L 10.52616024017334 3.566329479217529 C 9.398120880126953 2.203489542007446 7.846560478210449 1.999999523162842 7.022100448608398 1.999999523162842 C 5.282500743865967 1.999999523162842 3.590710639953613 2.854429483413696 2.712080717086792 4.176769256591797 C 1.794590711593628 5.557579517364502 1.764120697975159 7.368889331817627 2.623880624771118 9.414639472961426 C 3.549525022506714 11.61639022827148 5.944835662841797 15.09225845336914 12.06685066223145 19.4077320098877 M 12.06685066223145 21.83524894714355 C 5.578580856323242 17.4754695892334 2.175740718841553 13.50923919677734 0.780190646648407 10.1897497177124 C -2.958418607711792 1.293940424919128 7.720177173614502 -2.960312604904175 12.06685066223145 2.291079521179199 C 16.41352272033691 -2.960312366485596 27.09212112426758 1.293940663337708 23.3535099029541 10.1897497177124 C 21.95796012878418 13.50923919677734 18.55512046813965 17.4754695892334 12.06685066223145 21.83524894714355 Z"/>
  </g>
</svg>
