<?xml version="1.0" encoding="UTF-8"?>
<svg id="_레이어_1" data-name="레이어 1" xmlns="http://www.w3.org/2000/svg" xmlns:xlink="http://www.w3.org/1999/xlink" viewBox="0 0 223.34 226.56">
  <defs>
    <style>
      .cls-1 {
        filter: url(#outer-glow-1);
      }

      .cls-2 {
        fill: #d7a4c9;
      }
    </style>
    <filter id="outer-glow-1" filterUnits="userSpaceOnUse">
      <feOffset dx="0" dy="0"/>
      <feGaussianBlur result="blur" stdDeviation="8.5"/>
      <feFlood flood-color="#cba2c6" flood-opacity=".95"/>
      <feComposite in2="blur" operator="in"/>
      <feComposite in="SourceGraphic"/>
    </filter>
  </defs>
  <g class="cls-1">
    <path class="cls-2" d="m175.91,226.56H44.8v-72.72h131.11v72.72Zm-50.78-65.51v58.14h43.54v-58.14h-43.54Zm-73.07,58.16h43.54v-58.14h-43.54v58.14Zm51.11.03h14.37v-58.13h-14.37v58.13Z"/>
    <path class="cls-2" d="m65.06,30.46c.38-4.25.68-7.88,1.03-11.51.89-9.19,8.42-15.45,17.95-14.94,8.36.44,15.32,8.06,14.97,16.79-.12,2.87-1.15,5.71-1.82,8.85,12.01-3.21,24.29-6.49,36.91-9.87,2.53,9.43,5.03,18.75,7.59,28.31-44.77,11.99-89.3,23.92-134.1,35.91-2.54-9.45-5.03-18.71-7.59-28.26,12.46-3.36,24.83-6.7,37.69-10.16-4.2-2.48-7.01-5.55-8.43-9.73-2.62-7.71.83-16.23,8.06-19.98,7.34-3.81,16.17-1.73,21.12,5.05,2.18,2.98,4.22,6.07,6.61,9.54ZM12.85,74.93c40.04-10.73,79.82-21.4,119.77-32.1-1.3-4.81-2.52-9.3-3.79-13.99-40.07,10.74-79.89,21.42-119.76,32.11,1.29,4.78,2.5,9.23,3.78,13.99Zm59.31-39.47c5.64-2.71,10.96-4.93,15.92-7.77,3.46-1.98,4.47-6.57,3.09-10.33-1.35-3.67-5.25-6.3-9.05-6.07-4.14.24-7.95,3.18-8.52,7.31-.74,5.38-.95,10.84-1.44,16.86Zm-10.63,2.84c-3.55-5.01-6.58-9.73-10.08-14.06-2.65-3.29-7.3-3.69-11-1.61-3.54,1.99-5.32,6.07-4.42,10.11.87,3.9,4.41,7.07,8.49,6.92,5.49-.2,10.97-.85,17.01-1.36Z"/>
    <path class="cls-2" d="m172.48,18.58c4.95-.97,9.38-1.95,13.86-2.65,2.29-.36,3.74-1.25,4.81-3.4,2.03-4.13,4.39-8.1,6.83-12.52,2.49,4.49,4.91,8.58,7.02,12.82.97,1.94,2.29,2.72,4.3,3.04,4.34.71,8.65,1.58,12.97,2.4.28.05.54.23,1.06.47-3.31,3.55-6.43,7.06-9.75,10.37-1.49,1.49-2,2.84-1.63,4.99.79,4.62,1.17,9.31,1.77,14.41-3.83-1.79-7.45-3.16-10.74-5.1-3.43-2.02-6.4-2.12-9.86-.05-3.29,1.96-6.93,3.33-10.88,5.18.5-4.14.94-7.86,1.39-11.57.19-1.51.58-3.01.55-4.51-.02-.85-.52-1.85-1.11-2.51-3.36-3.71-6.81-7.33-10.59-11.37Zm25.54-3.12c-1.75,5.41-5.31,7.83-11.04,7.57.76.9,1.07,1.42,1.52,1.78,2.8,2.26,4.35,4.93,3.1,8.66-.24.72-.13,1.56-.22,3.09,4.56-4.03,8.87-3.75,13.41-.47-1.95-5.45-.42-9.55,4.13-12.86-5.62.04-9.16-2.3-10.89-7.77Z"/>
    <path class="cls-2" d="m194.24,69.81v7.15c-18.26-.39-34.25,5.25-47.26,18.21-13.03,12.98-18.75,28.94-18.36,47.36h-7.01c-3.13-37.03,28.7-74.89,72.64-72.72Z"/>
    <path class="cls-2" d="m110.38,67.13c2.2,3.98,4.27,7.51,6.12,11.15.79,1.56,1.89,2.13,3.5,2.41,3.95.67,7.88,1.49,12.24,2.33-2.85,3.05-5.34,5.96-8.11,8.59-1.76,1.67-2.12,3.35-1.71,5.66.65,3.64.94,7.34,1.44,11.41-4.09-1.92-7.87-3.61-11.58-5.46-1.37-.69-2.47-.64-3.82.03-3.7,1.84-7.48,3.53-11.6,5.46.54-4.24.96-8.07,1.53-11.88.29-1.91.1-3.41-1.44-4.88-2.84-2.72-5.42-5.7-8.41-8.88,4.22-.84,8.09-1.73,12-2.33,1.93-.3,3.06-1.12,3.94-2.86,1.76-3.51,3.76-6.9,5.89-10.74Zm-7.02,20.68c3.04,2.24,3.47,5.05,2.64,8.44,2.98-2.21,5.82-2.1,8.92-.08-1.62-3.68.09-6.15,3.06-8.72-4.15.24-6.32-1.5-7.59-5.38-1.33,3.78-3.25,5.84-7.04,5.73Z"/>
    <path class="cls-2" d="m84.6,131.7h-7.06c.39-10.22-2.31-19.36-9.68-26.73-7.32-7.33-16.35-10.14-26.68-9.71v-7.04c23.55-2.77,45.91,17.89,43.42,43.48Z"/>
    <path class="cls-2" d="m174.06,147.58c-2.21-1.1-4.29-2.14-6.36-3.17,6.95-17.08,23.56-29.69,48.41-27.08v7.11c-2.63,0-5.33-.01-8.03,0-5.23.03-10.25,1.04-15.01,3.22-7.36,3.37-12.95,8.65-16.81,15.76-.72,1.32-1.41,2.66-2.19,4.15Z"/>
    <path class="cls-2" d="m43.35,147.82c-3.75-7.15-8.91-12.63-16.03-16.2-7.13-3.58-14.76-3.72-22.63-3.48,0-2.44,0-4.75,0-7.05,18.04-2.18,35.34,4.65,44.92,22.88-1.96,1.21-3.94,2.43-6.25,3.85Z"/>
    <path class="cls-2" d="m172.43,51.48c-.01,6.12-4.89,10.93-11.04,10.91-6.09-.02-10.88-4.93-10.84-11.1.04-5.99,4.89-10.78,10.93-10.79,6.14,0,10.97,4.84,10.96,10.98Zm-10.84-3.66c-1.87-.07-3.69,1.69-3.72,3.58-.03,1.87,1.76,3.68,3.63,3.67,1.78,0,3.51-1.67,3.61-3.47.1-1.85-1.64-3.72-3.52-3.78Z"/>
    <path class="cls-2" d="m201.63,98.8c.02,6.16-4.79,11.03-10.91,11.04-6.13,0-10.98-4.84-10.98-10.97,0-6.03,4.81-10.88,10.79-10.92,6.18-.04,11.07,4.75,11.09,10.85Zm-11.06,3.72c1.86.07,3.7-1.69,3.74-3.57.03-1.78-1.59-3.53-3.4-3.67-1.85-.14-3.74,1.55-3.85,3.45-.11,1.85,1.63,3.72,3.51,3.79Z"/>
    <path class="cls-2" d="m66.56,120.84c-.01,6.12-4.89,10.93-11.05,10.91-6.09-.02-10.88-4.93-10.84-11.1.04-5.99,4.89-10.78,10.93-10.79,6.14,0,10.97,4.84,10.96,10.98Zm-7.32.14c.11-1.84-1.63-3.72-3.51-3.8-1.78-.07-3.55,1.51-3.73,3.34-.18,1.84,1.47,3.75,3.38,3.91,1.83.15,3.74-1.55,3.86-3.44Z"/>
    <path class="cls-2" d="m154.25,117.16c6.11.02,10.91,4.9,10.88,11.07-.03,6.08-4.95,10.87-11.13,10.82-5.97-.05-10.76-4.92-10.76-10.96,0-6.13,4.85-10.95,11.01-10.93Zm0,7.32c-1.87-.05-3.69,1.71-3.7,3.6-.02,1.87,1.79,3.67,3.66,3.65,1.79-.02,3.51-1.69,3.59-3.49.09-1.86-1.66-3.71-3.54-3.76Z"/>
  </g>
</svg>