<?xml version="1.0" encoding="UTF-8"?>
<svg id="_레이어_1" data-name="레이어 1" xmlns="http://www.w3.org/2000/svg" xmlns:xlink="http://www.w3.org/1999/xlink" viewBox="0 0 70.76 58.68">
  <defs>
    <style>
      .cls-1 {
        filter: url(#outer-glow-1);
      }

      .cls-2 {
        fill: none;
        stroke: #d7a4c9;
        stroke-linecap: round;
        stroke-linejoin: round;
        stroke-width: 2px;
      }
    </style>
    <filter id="outer-glow-1" filterUnits="userSpaceOnUse">
      <feOffset dx="0" dy="0"/>
      <feGaussianBlur result="blur" stdDeviation="8.5"/>
      <feFlood flood-color="#d7a4c9" flood-opacity=".95"/>
      <feComposite in2="blur" operator="in"/>
      <feComposite in="SourceGraphic"/>
    </filter>
  </defs>
  <g class="cls-1">
    <path class="cls-2" d="m1,57.68h5.92c1.46,0,2.64-1.07,2.64-2.39l-.02-.58V12.77c0-1.32,1.18-2.39,2.64-2.39h13.55s13.01.5,19.58-1.9c4.15-1.52,6.81-4.34,6.16-6.06s-4.8-1.91-9.2-.24-6.74,5.12-6.75,6.14l-.08.04c-.66.29-5.06,2.08-9.7.12-4.07-1.72-6.81-4.34-6.16-6.06s4.8-1.91,9.2-.24c4.04,1.53,6.58,4.9,6.74,6.04,0,0,3.28,2.16,9.79,2.16h13.26c1.46,0,2.64,1.07,2.64,2.39v41.94s0,.58,0,.58c0,1.32,1.18,2.39,2.64,2.39h5.92"/>
    <path class="cls-2" d="m34.13,19.62c.3,1.27.45,2.61.46,4.01,0,1.4-.14,2.72-.46,3.95-.19.75-.45,1.44-.78,2.09-.34.65-.74,1.22-1.21,1.72-.47.5-1.02.92-1.65,1.25-.62.34-1.31.56-2.05.67-1.58.24-3.17.35-4.75.34-1.58,0-3.16-.12-4.72-.34-.76-.11-1.46-.33-2.08-.67-.62-.34-1.18-.75-1.66-1.25-.48-.5-.89-1.07-1.23-1.72-.34-.64-.59-1.34-.75-2.09-.32-1.36-.47-2.72-.46-4.07,0-1.35.16-2.65.46-3.88.17-.73.42-1.41.75-2.06.34-.64.74-1.22,1.23-1.73.48-.51,1.04-.93,1.66-1.27.62-.34,1.32-.56,2.08-.67,3.16-.47,6.32-.47,9.47,0,.74.11,1.45.33,2.11.67.66.34,1.24.76,1.75,1.27.5.51.91,1.09,1.23,1.73.32.65.52,1.33.61,2.06Z"/>
    <path class="cls-2" d="m56.91,31.39c0,.58-.16,1.04-.47,1.39-.32.34-.74.52-1.28.52h-6.2c-.54,0-.97-.17-1.28-.52-.32-.35-.47-.81-.47-1.39v-9.81h-9.41c-.54,0-.97-.17-1.28-.52-.32-.34-.47-.81-.47-1.39v-3.87c0-.58.16-1.04.47-1.39.32-.34.74-.52,1.28-.52h17.37c.54,0,.97.17,1.28.52.32.35.47.81.47,1.39v15.59Z"/>
    <path class="cls-2" d="m34.13,39.74c.3,1.27.45,2.61.46,4.01,0,1.4-.14,2.72-.46,3.95-.19.75-.45,1.44-.78,2.09-.34.65-.74,1.22-1.21,1.72-.47.5-1.02.92-1.65,1.25-.62.34-1.31.56-2.05.67-1.58.24-3.17.35-4.75.34-1.58,0-3.16-.12-4.72-.34-.76-.11-1.46-.33-2.08-.67-.62-.34-1.18-.75-1.66-1.25-.48-.5-.89-1.07-1.23-1.72-.34-.64-.59-1.34-.75-2.09-.32-1.36-.47-2.72-.46-4.07,0-1.35.16-2.65.46-3.88.17-.73.42-1.41.75-2.06.34-.64.74-1.22,1.23-1.73.48-.51,1.04-.93,1.66-1.27.62-.34,1.32-.56,2.08-.67,3.16-.47,6.32-.47,9.47,0,.74.11,1.45.33,2.11.67.66.34,1.24.76,1.75,1.27.5.51.91,1.09,1.23,1.73.32.65.52,1.33.61,2.06Z"/>
    <path class="cls-2" d="m46.11,51.5c0,.58-.16,1.04-.47,1.39-.32.34-.74.52-1.28.52h-7.82c-.54,0-.97-.17-1.28-.52-.32-.35-.47-.81-.47-1.39v-15.59c0-.58.16-1.04.47-1.39.32-.34.74-.52,1.28-.52h7.82c.54,0,.97.17,1.28.52.32.35.47.81.47,1.39v3.87c0,.58-.16,1.05-.47,1.39-.32.35-.74.52-1.28.52h-1.37v4.03h1.37c.54,0,.97.17,1.28.52.32.35.47.81.47,1.39v3.87Zm12.06,0c0,.58-.16,1.04-.47,1.39-.32.34-.74.52-1.28.52h-7.82c-.54,0-.97-.17-1.28-.52-.32-.35-.47-.81-.47-1.39v-15.59c0-.58.16-1.04.47-1.39.32-.34.74-.52,1.28-.52h7.82c.54,0,.97.17,1.28.52.32.35.47.81.47,1.39v3.87c0,.58-.16,1.05-.47,1.39-.32.35-.74.52-1.28.52h-1.37v4.03h1.37c.54,0,.97.17,1.28.52.32.35.47.81.47,1.39v3.87Z"/>
    <path class="cls-2" d="m26.22,22.63c.07.31.11.63.11.97,0,.34-.04.66-.11.96-.05.18-.11.35-.19.51-.08.16-.18.3-.29.42-.12.12-.25.22-.4.3-.15.08-.32.14-.5.16-.38.06-.77.08-1.15.08-.38,0-.77-.03-1.15-.08-.19-.03-.35-.08-.51-.16-.15-.08-.29-.18-.4-.3-.12-.12-.22-.26-.3-.42-.08-.16-.14-.33-.18-.51-.08-.33-.11-.66-.11-.99,0-.33.04-.64.11-.94.04-.18.1-.34.18-.5.08-.16.18-.3.3-.42.12-.12.25-.23.4-.31.15-.08.32-.14.51-.16.77-.11,1.53-.11,2.3,0,.18.03.35.08.51.16.16.08.3.18.42.31.12.12.22.26.3.42.08.16.13.32.15.5Z"/>
    <path class="cls-2" d="m26.22,42.74c.07.31.11.63.11.97,0,.34-.04.66-.11.96-.05.18-.11.35-.19.51-.08.16-.18.3-.29.42-.12.12-.25.22-.4.3-.15.08-.32.14-.5.16-.38.06-.77.08-1.15.08-.38,0-.77-.03-1.15-.08-.19-.03-.35-.08-.51-.16-.15-.08-.29-.18-.4-.3-.12-.12-.22-.26-.3-.42-.08-.16-.14-.33-.18-.51-.08-.33-.11-.66-.11-.99,0-.33.04-.64.11-.94.04-.18.1-.34.18-.5.08-.16.18-.3.3-.42.12-.12.25-.23.4-.31.15-.08.32-.14.51-.16.77-.11,1.53-.11,2.3,0,.18.03.35.08.51.16.16.08.3.18.42.31.12.12.22.26.3.42.08.16.13.32.15.5Z"/>
  </g>
</svg>