<?xml version="1.0" encoding="UTF-8"?>
<svg id="_레이어_1" data-name="레이어 1" xmlns="http://www.w3.org/2000/svg" xmlns:xlink="http://www.w3.org/1999/xlink" viewBox="0 0 268.64 298.01">
  <defs>
    <style>
      .cls-1 {
        fill: none;
        stroke: #d7a4c9;
        stroke-linecap: round;
        stroke-linejoin: round;
        stroke-width: 5px;
      }

      .cls-2 {
        filter: url(#outer-glow-1);
      }

      .cls-3 {
        filter: url(#outer-glow-2);
      }
    </style>
    <filter id="outer-glow-1" filterUnits="userSpaceOnUse">
      <feOffset dx="0" dy="0"/>
      <feGaussianBlur result="blur" stdDeviation="8.5"/>
      <feFlood flood-color="#d7a4c9" flood-opacity=".95"/>
      <feComposite in2="blur" operator="in"/>
      <feComposite in="SourceGraphic"/>
    </filter>
    <filter id="outer-glow-2" filterUnits="userSpaceOnUse">
      <feOffset dx="0" dy="0"/>
      <feGaussianBlur result="blur-2" stdDeviation="8.5"/>
      <feFlood flood-color="#d7a4c9" flood-opacity=".95"/>
      <feComposite in2="blur-2" operator="in"/>
      <feComposite in="SourceGraphic"/>
    </filter>
  </defs>
  <g class="cls-2">
    <path class="cls-1" d="m2.5,219.81h22.69c5.59,0,10.12-4.1,10.12-9.15l-.06-2.22V47.63c0-5.05,4.53-9.15,10.12-9.15h51.95s49.88,1.9,75.06-7.28c15.92-5.81,26.11-16.63,23.6-23.23-2.62-6.91-18.41-7.32-35.27-.92-15.99,6.07-25.86,19.63-25.86,23.55l-.32.15c-2.52,1.11-19.4,7.99-37.21.46-15.61-6.6-26.11-16.63-23.6-23.23,2.62-6.91,18.41-7.32,35.27-.92,15.49,5.88,25.24,18.79,25.83,23.15,0,0,12.59,8.28,37.55,8.28h50.84c5.59,0,10.12,4.1,10.12,9.15v160.81s0,2.22,0,2.22c0,5.05,4.53,9.15,10.12,9.15h22.69"/>
    <path class="cls-1" d="m129.5,73.89c1.14,4.88,1.73,10,1.77,15.36.04,5.37-.55,10.42-1.77,15.15-.71,2.86-1.71,5.52-3,7.99-1.28,2.47-2.84,4.67-4.66,6.58-1.82,1.92-3.93,3.52-6.32,4.81-2.39,1.29-5.02,2.14-7.87,2.56-6.07.9-12.14,1.34-18.2,1.31-6.07-.04-12.1-.47-18.09-1.31-2.93-.42-5.59-1.27-7.98-2.56-2.39-1.29-4.52-2.89-6.37-4.81-1.86-1.92-3.43-4.11-4.71-6.58-1.28-2.47-2.25-5.14-2.89-7.99-1.21-5.22-1.8-10.43-1.77-15.62.04-5.19.62-10.15,1.77-14.89.64-2.79,1.61-5.42,2.89-7.89,1.28-2.47,2.85-4.68,4.71-6.64,1.86-1.95,3.98-3.57,6.37-4.86,2.39-1.29,5.05-2.14,7.98-2.56,12.13-1.81,24.23-1.81,36.29,0,2.85.42,5.55,1.27,8.08,2.56,2.53,1.29,4.76,2.91,6.69,4.86,1.93,1.95,3.5,4.16,4.71,6.64,1.21,2.47,2,5.1,2.36,7.89Z"/>
    <path class="cls-1" d="m216.87,119c0,2.23-.61,4.01-1.82,5.33-1.21,1.32-2.86,1.99-4.92,1.99h-23.77c-2.07,0-3.71-.66-4.92-1.99-1.21-1.32-1.82-3.1-1.82-5.33v-37.62h-36.08c-2.07,0-3.71-.66-4.92-1.99-1.21-1.32-1.82-3.1-1.82-5.33v-14.84c0-2.23.61-4.01,1.82-5.33,1.21-1.32,2.85-1.99,4.92-1.99h66.59c2.07,0,3.71.66,4.92,1.99,1.21,1.32,1.82,3.1,1.82,5.33v59.77Z"/>
    <path class="cls-1" d="m129.5,151.01c1.14,4.88,1.73,10,1.77,15.36.04,5.37-.55,10.42-1.77,15.15-.71,2.86-1.71,5.52-3,7.99-1.28,2.47-2.84,4.67-4.66,6.58-1.82,1.92-3.93,3.52-6.32,4.81-2.39,1.29-5.02,2.14-7.87,2.56-6.07.9-12.14,1.34-18.2,1.31-6.07-.04-12.1-.47-18.09-1.31-2.93-.42-5.59-1.27-7.98-2.56-2.39-1.29-4.52-2.89-6.37-4.81-1.86-1.92-3.43-4.11-4.71-6.58-1.28-2.47-2.25-5.14-2.89-7.99-1.21-5.22-1.8-10.43-1.77-15.62.04-5.19.62-10.15,1.77-14.89.64-2.79,1.61-5.42,2.89-7.89,1.28-2.47,2.85-4.68,4.71-6.64,1.86-1.95,3.98-3.57,6.37-4.86,2.39-1.29,5.05-2.14,7.98-2.56,12.13-1.81,24.23-1.81,36.29,0,2.85.42,5.55,1.27,8.08,2.56,2.53,1.29,4.76,2.91,6.69,4.86,1.93,1.95,3.5,4.16,4.71,6.64,1.21,2.47,2,5.1,2.36,7.89Z"/>
    <path class="cls-1" d="m175.43,196.13c0,2.23-.61,4.01-1.82,5.33-1.21,1.32-2.86,1.99-4.93,1.99h-29.98c-2.07,0-3.71-.66-4.93-1.99-1.21-1.32-1.82-3.1-1.82-5.33v-59.77c0-2.23.61-4.01,1.82-5.33,1.21-1.32,2.85-1.99,4.93-1.99h29.98c2.07,0,3.71.66,4.93,1.99,1.21,1.32,1.82,3.1,1.82,5.33v14.84c0,2.23-.61,4.01-1.82,5.33-1.21,1.32-2.86,1.99-4.93,1.99h-5.25v15.47h5.25c2.07,0,3.71.66,4.93,1.99,1.21,1.32,1.82,3.1,1.82,5.33v14.84Zm46.25,0c0,2.23-.61,4.01-1.82,5.33-1.21,1.32-2.86,1.99-4.92,1.99h-29.98c-2.07,0-3.71-.66-4.93-1.99-1.21-1.32-1.82-3.1-1.82-5.33v-59.77c0-2.23.61-4.01,1.82-5.33,1.21-1.32,2.85-1.99,4.93-1.99h29.98c2.07,0,3.71.66,4.92,1.99,1.21,1.32,1.82,3.1,1.82,5.33v14.84c0,2.23-.61,4.01-1.82,5.33-1.21,1.32-2.86,1.99-4.92,1.99h-5.25v15.47h5.25c2.07,0,3.71.66,4.92,1.99,1.21,1.32,1.82,3.1,1.82,5.33v14.84Z"/>
    <path class="cls-1" d="m99.18,85.42c.28,1.18.42,2.43.43,3.73,0,1.3-.13,2.53-.43,3.68-.17.69-.42,1.34-.73,1.94-.31.6-.69,1.13-1.13,1.6-.44.47-.95.85-1.53,1.17-.58.31-1.22.52-1.91.62-1.47.22-2.95.33-4.42.32-1.47,0-2.94-.11-4.39-.32-.71-.1-1.36-.31-1.94-.62-.58-.31-1.1-.7-1.55-1.17-.45-.46-.83-1-1.14-1.6-.31-.6-.55-1.25-.7-1.94-.29-1.27-.44-2.53-.43-3.79,0-1.26.15-2.46.43-3.61.16-.68.39-1.31.7-1.92.31-.6.69-1.14,1.14-1.61.45-.47.97-.87,1.55-1.18.58-.31,1.23-.52,1.94-.62,2.95-.44,5.88-.44,8.81,0,.69.1,1.35.31,1.96.62.61.31,1.16.71,1.62,1.18.47.47.85,1.01,1.14,1.61.29.6.48,1.24.57,1.92Z"/>
    <path class="cls-1" d="m99.18,162.54c.28,1.18.42,2.43.43,3.73,0,1.3-.13,2.53-.43,3.68-.17.69-.42,1.34-.73,1.94-.31.6-.69,1.13-1.13,1.6-.44.47-.95.85-1.53,1.17-.58.31-1.22.52-1.91.62-1.47.22-2.95.33-4.42.32-1.47,0-2.94-.11-4.39-.32-.71-.1-1.36-.31-1.94-.62-.58-.31-1.1-.7-1.55-1.17-.45-.46-.83-1-1.14-1.6-.31-.6-.55-1.25-.7-1.94-.29-1.27-.44-2.53-.43-3.79,0-1.26.15-2.46.43-3.61.16-.68.39-1.31.7-1.92.31-.6.69-1.14,1.14-1.61.45-.47.97-.87,1.55-1.18.58-.31,1.23-.52,1.94-.62,2.95-.44,5.88-.44,8.81,0,.69.1,1.35.31,1.96.62.61.31,1.16.71,1.62,1.18.47.47.85,1.01,1.14,1.61.29.6.48,1.24.57,1.92Z"/>
  </g>
  <g class="cls-3">
    <path class="cls-1" d="m42.02,249.76c.17.56.26,1.14.27,1.75,0,.61-.08,1.19-.27,1.73-.11.33-.26.63-.45.91-.19.28-.43.53-.7.75-.27.22-.59.4-.95.55-.36.15-.75.24-1.18.29-.91.1-1.82.15-2.73.15-.91,0-1.82-.05-2.72-.15-.44-.05-.84-.15-1.2-.29-.36-.15-.68-.33-.96-.55-.28-.22-.51-.47-.71-.75-.19-.28-.34-.59-.43-.91-.18-.6-.27-1.19-.27-1.78,0-.59.09-1.16.27-1.7.1-.32.24-.62.43-.9.19-.28.43-.53.71-.76.28-.22.6-.41.96-.55.36-.15.76-.24,1.2-.29,1.82-.21,3.64-.21,5.45,0,.43.05.83.15,1.21.29.38.15.72.33,1.01.55.29.22.53.47.71.76.18.28.3.58.35.9Z"/>
    <path class="cls-1" d="m62.11,278.15c1.42,0,2.54.46,3.37,1.39.83.93,1.24,2.17,1.24,3.73v6.74c0,1.56-.42,2.81-1.24,3.73-.83.93-1.95,1.39-3.37,1.39H9.97c-1.42,0-2.54-.46-3.37-1.39-.83-.93-1.24-2.17-1.24-3.73v-6.74c0-1.56.41-2.81,1.24-3.73.83-.93,1.95-1.39,3.37-1.39h1.98v-8.93c-2-1.17-3.65-2.67-4.94-4.5-1.29-1.83-2.09-3.99-2.38-6.48-.29-2.2-.44-4.61-.44-7.25s.15-5.05.44-7.25c.29-2.1.94-3.99,1.94-5.68,1-1.68,2.28-3.11,3.84-4.28,1.56-1.17,3.33-2.1,5.31-2.78,1.98-.68,4.09-1.1,6.33-1.24,9.28-.68,18.5-.68,27.68,0,2.29.15,4.45.56,6.48,1.24,2.03.68,3.82,1.61,5.38,2.78,1.56,1.17,2.84,2.6,3.84,4.28,1,1.68,1.65,3.58,1.94,5.68.29,2.2.44,4.61.44,7.25s-.15,5.05-.44,7.25c-.34,2.49-1.15,4.65-2.42,6.48-1.27,1.83-2.88,3.36-4.83,4.58v8.86h1.98Zm-23.14,0v-5.49h-5.86v5.49h5.86Z"/>
    <path class="cls-1" d="m132.63,267.75c0,1.56-.42,2.81-1.24,3.73-.83.93-1.95,1.39-3.37,1.39h-16.26c-1.42,0-2.54-.46-3.37-1.39-.83-.93-1.24-2.17-1.24-3.73v-18.45h-31.27c-1.42,0-2.54-.46-3.37-1.39-.83-.93-1.25-2.17-1.25-3.73v-8.93c0-1.56.41-2.81,1.25-3.73.83-.93,1.95-1.39,3.37-1.39h52.14c1.42,0,2.54.46,3.37,1.39.83.93,1.24,2.17,1.24,3.73v32.52Zm0,22.26c0,1.56-.42,2.81-1.24,3.73-.83.93-1.95,1.39-3.37,1.39h-52.14c-1.42,0-2.54-.46-3.37-1.39-.83-.93-1.25-2.17-1.25-3.73v-8.93c0-1.56.41-2.81,1.25-3.73.83-.93,1.95-1.39,3.37-1.39h1.32v-15.96c0-1.56.41-2.81,1.25-3.73.83-.93,1.95-1.39,3.37-1.39h15.23c1.42,0,2.54.46,3.37,1.39.83.93,1.24,2.17,1.24,3.73v15.96h26.36c1.42,0,2.54.46,3.37,1.39.83.93,1.24,2.17,1.24,3.73v8.93Z"/>
    <path class="cls-1" d="m177.6,279.91c-.1,1.86-.42,3.66-.95,5.42-.54,1.76-1.32,3.34-2.34,4.76-1.03,1.42-2.28,2.57-3.77,3.48-1.49.9-3.21,1.43-5.16,1.57-1.51.1-2.88.18-4.1.26-1.22.07-2.42.11-3.59.11s-2.37-.04-3.59-.11c-1.22-.07-2.56-.16-4.03-.26-2-.15-3.78-.67-5.35-1.57-1.56-.9-2.91-2.06-4.03-3.48-1.12-1.42-2-3-2.64-4.76-.64-1.76-.98-3.56-1.03-5.42-.15-3.66-.27-6.83-.37-9.52-.1-2.68-.15-5.27-.15-7.76s.05-5.08.15-7.76c.1-2.68.22-5.86.37-9.52.05-1.85.39-3.66,1.03-5.42.63-1.76,1.51-3.34,2.64-4.76,1.12-1.42,2.46-2.57,4.03-3.48,1.56-.9,3.34-1.43,5.35-1.57,1.46-.1,2.81-.17,4.03-.22,1.22-.05,2.42-.07,3.59-.07s2.37.03,3.59.07c1.22.05,2.59.12,4.1.22,1.95.15,3.67.67,5.16,1.57,1.49.9,2.75,2.05,3.77,3.44s1.81,2.97,2.34,4.72c.54,1.76.85,3.59.95,5.49.05.93.08,1.76.11,2.49.02.73.04,1.49.04,2.27h1.61v-14.87c0-1.56.41-2.81,1.24-3.73.83-.93,1.95-1.39,3.37-1.39h9.96c1.42,0,2.54.46,3.37,1.39.83.93,1.24,2.17,1.24,3.73v54.78c0,1.56-.42,2.81-1.24,3.73-.83.93-1.95,1.39-3.37,1.39h-9.96c-1.42,0-2.54-.46-3.37-1.39-.83-.93-1.24-2.17-1.24-3.73v-18.53h-1.46l-.29,8.42Z"/>
    <path class="cls-1" d="m161.27,264.39l-.06,1.65c-.02.36-.08.72-.19,1.06-.11.34-.26.65-.46.93-.2.28-.45.5-.74.68-.29.18-.63.28-1.01.31-.3.02-.56.04-.8.05-.24.01-.47.02-.7.02s-.46,0-.7-.02c-.24-.01-.5-.03-.79-.05-.39-.03-.74-.13-1.04-.31-.31-.18-.57-.4-.79-.68-.22-.28-.39-.59-.51-.93-.12-.34-.19-.7-.2-1.06-.03-.72-.05-1.34-.07-1.86-.02-.52-.03-1.03-.03-1.52s0-.99.03-1.52c.02-.52.04-1.14.07-1.86,0-.36.08-.72.2-1.06.12-.34.3-.65.51-.93.22-.28.48-.5.79-.68.31-.18.65-.28,1.04-.31.29-.02.55-.03.79-.04.24,0,.47-.01.7-.01s.46,0,.7.01c.24,0,.51.02.8.04.38.03.72.13,1.01.31.29.18.54.4.74.67s.35.58.46.92c.1.34.17.7.19,1.07,0,.18.02.34.02.49,0,.14,0,.29,0,.44l.03,4.18Z"/>
    <path class="cls-1" d="m218.24,290.02c0,1.56-.43,2.81-1.28,3.73-.85.93-1.97,1.39-3.33,1.39h-5.93c-1.42,0-2.54-.46-3.37-1.39-.83-.93-1.25-2.17-1.25-3.73v-54.78c0-1.56.41-2.81,1.25-3.73.83-.93,1.95-1.39,3.37-1.39h5.93c1.37,0,2.48.46,3.33,1.39.85.93,1.28,2.17,1.28,3.73v11.94c0,.63-.18,1.15-.55,1.54-.37.39-.82.59-1.35.59h-.07v26.66h.07c.54,0,.99.2,1.35.59.37.39.55.9.55,1.54v11.94Zm16.55,0c0,1.56-.42,2.81-1.24,3.73-.83.93-1.95,1.39-3.37,1.39h-5.71c-1.42,0-2.54-.46-3.37-1.39-.83-.93-1.24-2.17-1.24-3.73v-54.78c0-1.56.41-2.81,1.24-3.73.83-.93,1.95-1.39,3.37-1.39h5.71c1.42,0,2.54.46,3.37,1.39.83.93,1.24,2.17,1.24,3.73v12.23c0,1.22-.56,1.83-1.68,1.83h-.07v26.66h.07c1.12,0,1.68.61,1.68,1.83v12.23Zm29.66,0c0,1.56-.42,2.81-1.24,3.73-.83.93-1.95,1.39-3.37,1.39h-3.95c-1.37,0-2.48-.46-3.33-1.39-.85-.93-1.28-2.17-1.28-3.73v-17.8h-1.61v17.8c0,1.56-.42,2.81-1.25,3.73-.83.93-1.95,1.39-3.37,1.39h-3.95c-1.42,0-2.54-.46-3.37-1.39-.83-.93-1.25-2.17-1.25-3.73v-54.78c0-1.56.41-2.81,1.25-3.73.83-.93,1.95-1.39,3.37-1.39h3.95c1.42,0,2.54.46,3.37,1.39.83.93,1.25,2.17,1.25,3.73v15.6h1.61v-15.6c0-1.56.43-2.81,1.28-3.73.85-.93,1.96-1.39,3.33-1.39h3.95c1.42,0,2.54.46,3.37,1.39.83.93,1.24,2.17,1.24,3.73v54.78Z"/>
  </g>
</svg>