<?xml version="1.0" encoding="UTF-8"?>
<svg id="_레이어_1" data-name="레이어 1" xmlns="http://www.w3.org/2000/svg" xmlns:xlink="http://www.w3.org/1999/xlink" viewBox="0 0 235.31 235.71">
  <defs>
    <style>
      .cls-1 {
        filter: url(#outer-glow-1);
      }

      .cls-2 {
        fill: #d7a4c9;
      }
    </style>
    <filter id="outer-glow-1" filterUnits="userSpaceOnUse">
      <feOffset dx="0" dy="0"/>
      <feGaussianBlur result="blur" stdDeviation="8.5"/>
      <feFlood flood-color="#cba2c6" flood-opacity=".95"/>
      <feComposite in2="blur" operator="in"/>
      <feComposite in="SourceGraphic"/>
    </filter>
  </defs>
  <g class="cls-1">
    <path class="cls-2" d="m2.33,235.71C.49,234.6,0,232.97,0,230.85c.04-61.67.04-123.35.04-185.02,0-.61-.07-1.25.06-1.84.41-1.89,1.62-2.99,3.56-2.92,1.8.07,3.02,1.09,3.26,2.95.14,1.06.12,2.14.12,3.21,0,59.37,0,118.74,0,178.11,0,.98,0,1.97,0,3.14h170.05v-22.67c-.49.34-.98.6-1.38.96-1.82,1.65-3.64,3.29-5.41,4.99-1.4,1.34-2.87,2.42-4.9,1.58-1.96-.81-2.12-2.65-2.22-4.44-.21-3.67-.4-7.35-.59-11.03-.31-5.97-.72-11.94-.84-17.92-.04-2.07.3-4.3,1.06-6.22,4.49-11.3,9.17-22.52,13.75-33.79.39-.97.68-2.06.68-3.09.04-27.31.03-54.62.02-81.92,0-.52-.08-1.05-.14-1.85-.96,0-1.86,0-2.76,0-12.58,0-25.16,0-37.74,0-4.43,0-5.39-.97-5.39-5.4,0-12.58,0-25.16,0-37.74v-2.71H7.17c-.04.76-.12,1.57-.12,2.38-.01,6.29,0,12.58,0,18.87,0,.77,0,1.54-.08,2.3-.21,1.93-1.7,3.3-3.48,3.28-1.82-.03-3.4-1.43-3.41-3.37C.02,21.58,0,12.45.08,3.32.1,1.39,1.38.28,3.32.07c.61-.07,1.23-.02,1.84-.02C47.81.05,90.46.07,133.11,0c2.37,0,4.03.79,5.65,2.41,14.39,14.46,28.82,28.89,43.29,43.28,1.71,1.69,2.46,3.5,2.46,5.9-.05,21.71-.03,43.42-.03,65.12v2.51c.13.05.27.09.4.14.36-.76.76-1.5,1.08-2.28,5.24-12.81,10.47-25.63,15.71-38.44,2.61-6.39,7.29-8.36,13.66-5.76,4.39,1.79,8.77,3.6,13.16,5.4,6.28,2.59,8.31,7.25,5.77,13.47-6.15,15.08-12.33,30.15-18.52,45.23-1.1,2.69-2.61,3.71-4.57,3.17-2.43-.66-3.26-2.72-2.13-5.53,2.95-7.3,5.95-14.59,8.92-21.88.31-.76.59-1.54.95-2.47-6.45-2.64-12.73-5.21-19.27-7.88-9.97,24.35-19.86,48.52-29.83,72.88,6.42,2.63,12.77,5.23,19.31,7.9,1.13-2.73,2.25-5.4,3.35-8.08,3.54-8.63,7.06-17.27,10.6-25.9.35-.84.64-1.97,1.3-2.36,1.08-.64,2.7-1.36,3.64-.97,1.06.44,1.84,2,2.3,3.23.26.7-.28,1.77-.62,2.6-4.87,11.97-9.65,23.98-14.76,35.85-1,2.33-2.95,4.59-5.04,6.05-4.6,3.22-5.84,7.29-5.53,12.72.45,7.95.07,15.95.14,23.93.02,2.19-.45,4.04-2.2,5.46H2.33ZM171.49,45.96c-10.95-10.93-21.95-21.92-32.89-32.85v32.85h32.89Zm30.84,49.83c6.56,2.69,12.89,5.27,19.33,7.92,2.15-5.28,4.2-10.38,6.3-15.45.65-1.58.02-2.51-1.37-3.08-4.94-2.04-9.91-4.02-14.84-6.07-1.57-.66-2.55-.07-3.13,1.31-2.08,5-4.1,10.03-6.29,15.38Zm-33.34,86.84c.34,6.62.67,12.95,1.02,19.76,5.04-4.65,9.7-8.95,14.54-13.41-5.35-2.18-10.33-4.21-15.56-6.35Z"/>
    <path class="cls-2" d="m23.53,143.73c0-4.21-.01-8.43,0-12.64.01-3.58,1.27-4.87,4.82-4.88,7.97-.02,15.93-.04,23.9.03,1.53.01,2.61-.36,3.46-1.66.66-1.02,1.44-1.99,2.28-2.87,1.5-1.59,3.41-1.76,4.92-.54,1.51,1.21,1.79,3.11.52,4.93-1.22,1.76-2.72,3.33-3.88,5.12-.62.95-1.11,2.19-1.12,3.3-.1,7.12-.04,14.25-.05,21.37,0,3.96-1.26,5.19-5.25,5.19-8.2,0-16.39.01-24.59,0-3.74,0-4.99-1.25-5-4.94-.01-4.14,0-8.27,0-12.41Zm7.33-10.2v20.13h20.18v-11.64c-1.66,2.08-2.97,3.83-4.39,5.47-1.9,2.2-3.8,2.28-5.91.27-1.99-1.9-3.94-3.87-5.85-5.85-1.72-1.78-1.87-3.85-.49-5.31,1.54-1.63,3.48-1.54,5.47.29,1.16,1.06,2.26,2.19,3.49,3.38,1.79-2.31,3.41-4.39,5.23-6.74h-17.73Z"/>
    <path class="cls-2" d="m40.93,115.08c-4.3,0-8.59.02-12.89,0-3.16-.02-4.49-1.34-4.5-4.48-.02-8.59-.02-17.18,0-25.77,0-3.2,1.37-4.56,4.68-4.57,7.98-.04,15.96-.06,23.93.03,1.62.02,2.75-.38,3.64-1.76.71-1.08,1.57-2.09,2.48-3.01,1.39-1.41,3.06-1.44,4.58-.31,1.57,1.16,1.86,2.88.82,4.49-1.24,1.93-2.85,3.61-4.1,5.53-.62.95-1.13,2.19-1.15,3.3-.1,7.06-.05,14.11-.05,21.17,0,4.26-1.16,5.39-5.49,5.4-3.99,0-7.98,0-11.97,0Zm10.15-19.09c-1.65,2.08-2.89,3.71-4.2,5.29-2.05,2.47-3.95,2.61-6.23.42-1.93-1.86-3.83-3.76-5.69-5.69-1.8-1.86-1.95-4.03-.46-5.48,1.57-1.53,3.52-1.39,5.47.5,1.08,1.05,2.02,2.24,3.17,3.53,2-2.55,3.62-4.62,5.47-6.97h-17.7v20.16h20.18v-11.76Z"/>
    <path class="cls-2" d="m23.53,189.55c0-4.29-.02-8.58,0-12.88.02-3.13,1.36-4.45,4.51-4.46,8.58-.02,17.17-.02,25.75,0,3.13,0,4.54,1.33,4.55,4.45.05,8.66.05,17.32,0,25.98-.02,2.98-1.42,4.36-4.43,4.38-8.66.06-17.32.06-25.98,0-3.1-.02-4.39-1.44-4.41-4.6-.02-4.29,0-8.58,0-12.88Zm7.29,10.14h20.15v-20.16h-20.15v20.16Z"/>
    <path class="cls-2" d="m116.53,85.7c11.8,0,23.61,0,35.41,0,.69,0,1.39-.05,2.07.05,1.98.31,3.3,1.46,3.32,3.49.02,1.89-1.09,3.14-3.03,3.46-.82.13-1.67.18-2.51.18-23.61,0-47.21,0-70.82,0-3.88,0-5.51-1.11-5.46-3.68.04-2.46,1.64-3.51,5.39-3.51,11.88,0,23.76,0,35.64,0Z"/>
    <path class="cls-2" d="m116.46,131.7c11.88,0,23.76,0,35.64,0,.77,0,1.56-.07,2.29.09,1.88.41,3.01,1.67,2.93,3.57-.07,1.74-1.05,3.02-2.95,3.27-.83.11-1.68.17-2.52.17-23.68,0-47.37,0-71.05,0-.76,0-1.53-.03-2.29-.15-2.06-.32-3.1-1.57-3-3.64.1-2,1.35-3,3.23-3.27.68-.1,1.38-.04,2.07-.04,11.88,0,23.76,0,35.64,0Z"/>
    <path class="cls-2" d="m116.23,184.7c-12.11,0-24.22.01-36.32,0-2.95,0-4.43-1.2-4.4-3.48.02-1.98,1.1-3.12,3.01-3.45.67-.12,1.38-.05,2.07-.05,23.91,0,47.82,0,71.73,0,.69,0,1.4-.07,2.06.06,1.93.36,3.01,1.65,2.95,3.53-.05,1.75-1.04,3.04-2.93,3.29-.83.11-1.68.1-2.52.1-11.88,0-23.76,0-35.63,0Z"/>
    <path class="cls-2" d="m110.7,201.6c-10.05,0-20.1,0-30.14-.01-.91,0-1.85-.07-2.71-.33-1.57-.47-2.36-1.62-2.34-3.29.02-1.66.82-2.8,2.4-3.22.95-.25,1.96-.34,2.95-.34,19.94-.02,39.89-.02,59.83-.01,3.66,0,5.38,1.12,5.44,3.53.06,2.47-1.73,3.67-5.51,3.67-9.97,0-19.94,0-29.91,0Z"/>
    <path class="cls-2" d="m108.89,109.58c-9.73,0-19.47-.02-29.2.02-1.89,0-3.36-.57-4.04-2.37-.8-2.09.59-4.23,2.86-4.56.75-.11,1.53-.1,2.29-.1,18.86,0,37.71,0,56.57,0,.54,0,1.07,0,1.61.03,2.24.17,3.75,1.64,3.69,3.57-.06,1.97-1.6,3.38-3.88,3.39-9.58.03-19.16.01-28.74.02-.38,0-.77,0-1.15,0Z"/>
    <path class="cls-2" d="m95.07,38.25c6.98,0,13.95-.02,20.93,0,2.44,0,4.05,1.43,4.07,3.46.02,2.01-1.56,3.4-4.02,3.53-.69.03-1.38.01-2.07.01-12.27,0-24.53,0-36.8,0-1.23,0-2.45.04-3.68-.02-2.42-.11-3.98-1.56-3.92-3.58.06-2.04,1.63-3.39,4.1-3.4,7.13-.02,14.26,0,21.39,0Z"/>
    <path class="cls-2" d="m90.06,155.6c-3.44,0-6.88.02-10.33,0-2.69-.02-4.19-1.28-4.23-3.46-.04-2.21,1.35-3.61,4.06-3.64,7.04-.08,14.07-.07,21.11,0,2.6.03,4.24,1.56,4.22,3.59-.03,2.15-1.73,3.5-4.51,3.52-3.44.02-6.88,0-10.33,0Z"/>
  </g>
</svg>