<?xml version="1.0" encoding="UTF-8"?>
<svg id="_레이어_1" data-name="레이어 1" xmlns="http://www.w3.org/2000/svg" xmlns:xlink="http://www.w3.org/1999/xlink" viewBox="0 0 102.68 121.73">
  <defs>
    <style>
      .cls-1 {
        filter: url(#outer-glow-1);
      }

      .cls-2 {
        fill: #d7a4c9;
      }
    </style>
    <filter id="outer-glow-1" filterUnits="userSpaceOnUse">
      <feOffset dx="0" dy="0"/>
      <feGaussianBlur result="blur" stdDeviation="8.5"/>
      <feFlood flood-color="#cba2c6" flood-opacity=".95"/>
      <feComposite in2="blur" operator="in"/>
      <feComposite in="SourceGraphic"/>
    </filter>
  </defs>
  <g class="cls-1">
    <path class="cls-2" d="m3.56,121.73c-.24-.13-.47-.26-.71-.38C1.01,120.46,0,119.02,0,116.95,0,89.1,0,61.25,0,33.4c0-2.84,2.02-4.83,4.87-4.84,4.32,0,8.64,0,12.95,0,.43,0,.86,0,1.35,0,1.3-9.14,5.49-16.57,12.83-22.1C38.35,1.68,45.57-.44,53.49.08c15.18.99,27.91,12.53,30.01,28.48.41,0,.83,0,1.26,0,4.36,0,8.72,0,13.07,0,2.84,0,4.85,2.01,4.86,4.85,0,15.13,0,30.27,0,45.4,0,2.81-2.01,4.87-4.71,4.88-2.77.01-4.78-2.05-4.79-4.93,0-13.03,0-26.07,0-39.1,0-.47,0-.95,0-1.52h-9.51v1.23c0,4.24,0,8.48,0,12.72,0,2.9-1.99,4.97-4.74,4.97-2.76,0-4.75-2.06-4.76-4.96,0-4.63,0-9.26,0-13.98H28.52c0,.43,0,.85,0,1.27,0,4.24,0,8.48,0,12.72,0,2.89-2,4.95-4.77,4.94-2.75,0-4.72-2.08-4.73-4.99,0-4.2,0-8.4,0-12.6,0-.43,0-.86,0-1.36h-9.45v74.1h1.36c16.12,0,32.25.04,48.37-.03,2.93-.01,4.82,1.69,5.29,3.81.53,2.37-.72,4.41-3.34,5.57-.06.03-.11.11-.16.17H3.56ZM73.69,28.52c-1.17-9.23-10.12-19.55-23.49-18.92-6.55.31-12.03,3.09-16.29,8.11-2.64,3.11-4.35,6.68-4.99,10.81h44.77Z"/>
    <path class="cls-2" d="m87.23,121.73c-1.56-.7-2.92-1.61-3.35-3.39-.17-.68-.18-1.4-.2-2.11-.03-1.3,0-2.59,0-4.02h-2.32c-5.07,0-7.2-1.41-7.19-4.78,0-3.34,2.12-4.72,7.24-4.72h2.27c0-1.61,0-3.14,0-4.67.02-2.79,2.03-4.84,4.75-4.84,2.72,0,4.73,2.05,4.75,4.84,0,1.5,0,3,0,4.67h2.14c5.22,0,7.35,1.36,7.36,4.72.01,3.42-2.11,4.78-7.42,4.78-.63,0-1.26,0-2.09,0,0,1.16-.09,2.3.02,3.42.28,2.92-.83,4.98-3.58,6.09h-2.38Z"/>
  </g>
</svg>