<svg xmlns="http://www.w3.org/2000/svg" width="26.014" height="30.839" viewBox="382.865 69.683 26.014 30.839"><g data-name="그룹 73"><g data-name="그룹 80" transform="translate(376.375 63.177)" clip-path="url(&quot;#a&quot;)"><g data-name="그룹 79"><g data-name="그룹 78" clip-path="url(&quot;#b&quot;)"><path d="M7.392 37.345c-.06-.032-.118-.066-.18-.096-.466-.226-.721-.59-.721-1.116V14.966c0-.719.51-1.224 1.234-1.226 1.093-.002 2.188 0 3.282 0h.34c.33-2.316 1.39-4.198 3.25-5.598 1.61-1.212 3.438-1.748 5.443-1.617 3.845.25 7.07 3.174 7.602 7.215h.318c1.104 0 2.208-.002 3.312 0 .72.002 1.23.51 1.23 1.23.002 3.834.002 7.668 0 11.502 0 .711-.509 1.234-1.193 1.237-.702.003-1.212-.52-1.213-1.248V16.17h-2.41v3.533c-.002.736-.504 1.26-1.202 1.26-.7.001-1.204-.523-1.205-1.255-.002-1.173 0-2.346 0-3.54H13.714v3.543c-.002.731-.508 1.254-1.21 1.252-.696-.001-1.196-.527-1.197-1.263V16.166H8.912v18.77h.346c4.084 0 8.17.01 12.254-.008.743-.003 1.22.429 1.34.965.132.6-.183 1.118-.846 1.41-.017.007-.027.028-.04.042H7.391ZM25.16 13.73c-.295-2.338-2.563-4.954-5.95-4.794-1.661.079-3.048.783-4.128 2.055a5.45 5.45 0 0 0-1.265 2.739H25.16Z" fill="#484c99" fill-rule="evenodd" data-name="패스 118"/><path d="M28.59 37.345c-.395-.176-.74-.408-.85-.858a2.467 2.467 0 0 1-.05-.534c-.008-.328-.003-.657-.003-1.018H27.1c-1.286 0-1.823-.357-1.82-1.21.002-.848.537-1.197 1.834-1.197h.574v-1.182c.004-.707.515-1.226 1.203-1.227.688 0 1.2.52 1.204 1.226.002.38 0 .76 0 1.183h.543c1.324 0 1.863.346 1.866 1.196.003.865-.534 1.211-1.88 1.211h-.529c0 .295-.022.584.005.867.07.74-.21 1.26-.907 1.543h-.602Z" fill="#484c99" fill-rule="evenodd" data-name="패스 119"/></g></g></g></g><defs><clipPath id="d"><path d="M0 0h39.034v43.838H0V0z" data-name="사각형 63"/></clipPath><clipPath id="c"><path d="M0 0h39.034v43.838H0V0z" data-name="사각형 64"/></clipPath><clipPath id="b"><path d="M0 0h39.034v43.838H0V0z" data-name="사각형 65"/></clipPath><clipPath id="a"><path d="M0 0h39.034v43.838H0V0z" data-name="사각형 66"/></clipPath></defs></svg>